<?xml version="1.0" standalone="no"?>
<!DOCTYPE svg PUBLIC "-//W3C//DTD SVG 20010904//EN"
 "http://www.w3.org/TR/2001/REC-SVG-20010904/DTD/svg10.dtd">
<svg version="1.0" xmlns="http://www.w3.org/2000/svg"
 width="1280.000000pt" height="1280.000000pt" viewBox="0 0 1280.000000 1280.000000"
 preserveAspectRatio="xMidYMid meet">

<g transform="translate(0.000000,1280.000000) scale(0.100000,-0.100000)"
fill="#000000" stroke="none">
<path d="M3903 12584 c-67 -15 -112 -41 -162 -94 -17 -19 -38 -42 -46 -51 -9
-9 -22 -51 -30 -93 -13 -67 -15 -352 -15 -2065 0 -1700 -2 -1990 -14 -2007
-14 -18 -37 -19 -843 -24 -887 -5 -837 -2 -918 -54 -94 -60 -115 -76 -171
-132 -136 -137 -216 -308 -236 -510 -14 -133 0 -353 25 -404 9 -17 19 -48 23
-69 4 -20 15 -47 25 -60 11 -13 19 -29 19 -36 0 -7 29 -48 64 -92 35 -43 885
-898 1888 -1899 1777 -1776 1910 -1904 1964 -1904 6 0 17 -6 23 -14 7 -8 35
-20 64 -27 29 -7 68 -19 87 -27 26 -12 74 -15 190 -16 144 0 161 2 235 28 81
28 186 75 195 87 3 3 21 14 40 24 20 9 855 836 1909 1889 1959 1957 1963 1961
1986 2065 4 18 17 54 28 80 19 42 21 63 21 246 -1 192 -2 203 -28 268 -14 37
-26 75 -26 84 0 9 -6 24 -13 32 -8 9 -20 32 -27 51 -8 19 -23 47 -34 62 -12
15 -37 48 -56 74 -31 42 -81 87 -177 160 -15 12 -39 25 -53 29 -14 4 -36 15
-50 25 -57 38 -107 40 -904 40 l-773 0 -21 23 -22 23 0 1990 c0 1373 -3 2009
-11 2050 -6 32 -22 77 -37 99 -30 45 -77 95 -88 95 -4 0 -17 9 -28 19 -12 11
-54 27 -96 35 -67 14 -286 16 -1960 15 -1534 -1 -1896 -4 -1947 -15z"/>
<path d="M1220 2156 c-36 -7 -83 -23 -106 -37 -46 -27 -104 -74 -104 -84 0 -4
-9 -20 -21 -36 -31 -43 -69 -176 -69 -240 0 -63 32 -165 79 -249 17 -30 35
-66 41 -80 5 -14 16 -36 25 -50 8 -14 23 -44 34 -66 11 -23 24 -45 29 -48 6
-3 13 -19 17 -35 3 -16 13 -35 20 -41 8 -6 19 -28 26 -48 6 -20 17 -44 24 -52
7 -8 16 -26 20 -40 4 -14 13 -32 20 -40 12 -14 118 -218 320 -616 111 -220
143 -257 262 -300 l66 -24 3957 0 3957 0 65 24 c67 24 90 40 149 105 11 12 38
56 60 99 22 42 44 84 49 92 5 8 15 29 23 45 7 17 19 39 25 50 7 11 17 31 23
45 5 14 23 48 38 75 16 28 56 106 90 175 34 69 66 132 71 140 6 8 18 31 28 50
11 19 26 49 35 65 9 17 19 37 22 45 3 8 39 78 80 155 41 77 102 196 137 265
l63 125 3 111 c6 168 -10 221 -93 312 -57 64 -123 99 -208 111 -118 17 -9167
14 -9257 -3z"/>
</g>
</svg>
