<?xml version="1.0" encoding="UTF-8" standalone="no"?> <svg width="64" height="64" viewBox="0 0 64 64" fill="none" xmlns="http://www.w3.org/2000/svg">
<path d="M55 38.6001C53.2636 38.6027 51.5992 39.2937 50.3714 40.5215C49.1436 41.7493 48.4526 43.4137 48.45 45.1501V48.4001H15.6V45.1501C15.6 43.4129 14.9099 41.7469 13.6815 40.5186C12.4532 39.2902 10.7872 38.6001 9.05 38.6001C7.31283 38.6001 5.64681 39.2902 4.41845 40.5186C3.19009 41.7469 2.5 43.4129 2.5 45.1501V49.9301C2.50265 52.9978 3.72248 55.9392 5.8917 58.1084C8.06092 60.2776 11.0023 61.4975 14.07 61.5001H49.93C52.9977 61.4975 55.9391 60.2776 58.1083 58.1084C60.2775 55.9392 61.4974 52.9978 61.5 49.9301V45.1501C61.4974 43.4224 60.8134 41.7654 59.5964 40.539C58.3794 39.3126 56.7277 38.6159 55 38.6001V38.6001Z" fill="#ACB3BA"/>
<path d="M48.1499 21.32C46.9355 20.0948 45.285 19.4008 43.5599 19.39C42.7113 19.3789 41.8694 19.5408 41.0854 19.8658C40.3014 20.1907 39.5918 20.6719 38.9999 21.28L38.5499 21.73L38.5599 9.00001C38.5599 7.27956 37.8778 5.62928 36.6632 4.41087C35.4485 3.19246 33.8003 2.5053 32.0799 2.50001V2.50001C31.225 2.49869 30.3782 2.66578 29.5879 2.99172C28.7975 3.31767 28.0791 3.79609 27.4737 4.39967C26.8683 5.00325 26.3876 5.72017 26.0593 6.5095C25.7309 7.29883 25.5612 8.1451 25.5599 9.00001L25.4999 21.7L25.0499 21.24C23.8355 20.0148 22.185 19.3208 20.4599 19.31V19.31C19.1804 19.3111 17.9296 19.6893 16.8638 20.3972C15.7979 21.1051 14.9643 22.1114 14.4672 23.2904C13.97 24.4693 13.8312 25.7686 14.0683 27.026C14.3053 28.2834 14.9076 29.443 15.7999 30.36L27.2599 41.93C27.8683 42.5393 28.5908 43.0226 29.3861 43.3524C30.1814 43.6822 31.0339 43.8519 31.8949 43.8519C32.7559 43.8519 33.6084 43.6822 34.4037 43.3524C35.199 43.0226 35.9215 42.5393 36.5299 41.93L48.0999 30.52C49.3188 29.2994 50.0034 27.645 50.0034 25.92C50.0034 24.195 49.3188 22.5406 48.0999 21.32H48.1499Z" fill="#F0454E"/>
</svg>
