<?xml version="1.0" standalone="no"?>
<!DOCTYPE svg PUBLIC "-//W3C//DTD SVG 20010904//EN"
 "http://www.w3.org/TR/2001/REC-SVG-20010904/DTD/svg10.dtd">
<svg version="1.0" xmlns="http://www.w3.org/2000/svg"
 width="981.000000pt" height="363.000000pt" viewBox="0 0 981.000000 363.000000"
 preserveAspectRatio="xMidYMid meet">

<g transform="translate(0.000000,363.000000) scale(0.100000,-0.100000)"
fill="#000000" stroke="none">
<path d="M1855 2388 l0 -763 -40 -3 c-22 -2 -82 -1 -132 3 l-93 7 0 671 0 672
-23 2 c-12 0 -116 22 -232 47 -115 25 -215 46 -222 46 -9 0 -10 -6 -3 -22 5
-13 98 -331 205 -708 107 -377 197 -691 200 -698 4 -10 -26 -12 -150 -10 -85
2 -155 0 -155 -4 0 -24 50 -30 194 -24 188 7 162 7 286 0 78 -5 130 -2 208 11
77 14 106 15 115 6 7 -7 59 -11 149 -11 120 0 156 4 267 30 l128 31 -23 122
c-12 67 -42 226 -65 352 -23 127 -54 299 -70 384 -15 85 -26 158 -23 163 3 4
61 8 129 8 121 0 125 -1 130 -22 2 -13 18 -133 35 -268 30 -232 34 -259 44
-249 3 2 25 108 51 234 25 127 51 246 56 267 l9 36 86 7 c67 6 89 4 99 -6 7
-8 37 -126 65 -264 29 -137 56 -254 61 -259 6 -6 9 -4 9 5 0 7 7 64 15 124 8
61 22 166 30 235 23 183 11 170 159 170 69 0 127 -4 130 -8 3 -5 -33 -217 -80
-473 -47 -255 -91 -497 -98 -536 -16 -89 -23 -87 134 -29 l115 43 0 493 0 494
-95 32 c-52 17 -230 75 -395 129 -165 53 -423 137 -574 186 -150 49 -278 89
-285 89 -6 0 4 -9 22 -20 65 -40 90 -145 52 -227 -50 -112 -210 -112 -260 0
-26 57 -25 114 3 169 l23 46 -70 21 c-39 11 -82 23 -96 26 l-25 6 0 -763z
m430 -228 l0 -535 -130 0 -130 0 -3 538 -2 538 132 -3 133 -3 0 -535z"/>
<path d="M5832 3027 l-104 -104 26 -37 c97 -143 112 -396 32 -560 -37 -78
-106 -156 -164 -185 -60 -31 -132 -52 -179 -53 l-44 -1 3 -70 3 -71 33 -7 c19
-4 57 -22 85 -42 179 -120 410 -268 413 -264 2 2 3 340 2 751 l-3 746 -103
-103z"/>
<path d="M3844 3065 c29 -71 29 -140 0 -196 -18 -36 -67 -76 -104 -84 -39 -9
-31 -20 29 -40 26 -8 58 -25 69 -36 l22 -20 0 -535 0 -536 31 19 c27 15 43 46
116 223 47 113 94 230 106 261 l21 56 -68 164 c-38 90 -83 200 -102 243 -19
44 -34 90 -34 103 l0 24 148 -3 147 -3 47 -115 c26 -63 49 -119 51 -124 1 -5
22 37 45 93 l43 103 -27 21 c-15 11 -137 101 -273 200 -135 99 -252 185 -260
191 -12 9 -13 7 -7 -9z"/>
<path d="M840 3059 c0 -5 5 -7 10 -4 6 3 10 8 10 11 0 2 -4 4 -10 4 -5 0 -10
-5 -10 -11z"/>
<path d="M7870 2793 c-256 -52 -466 -96 -468 -98 -2 -2 21 -120 52 -263 31
-142 56 -263 56 -268 1 -34 26 54 75 271 31 137 59 253 61 257 3 5 68 8 145 8
127 0 139 -2 139 -18 0 -10 -49 -198 -109 -418 -145 -535 -145 -534 -140 -538
2 -2 155 -31 339 -65 184 -35 342 -65 351 -67 8 -2 62 26 120 63 861 551 889
569 889 587 0 12 -330 232 -432 289 -70 39 9 -16 197 -138 105 -68 199 -129
209 -137 20 -15 21 -14 -484 -338 -39 -25 -163 -105 -275 -178 -113 -73 -210
-130 -215 -127 -6 4 -10 231 -10 631 0 684 -2 658 57 617 38 -27 53 -35 53
-30 0 15 -84 57 -112 56 -18 -1 -242 -44 -498 -96z"/>
<path d="M742 2722 c-17 -61 -32 -116 -31 -124 0 -7 16 39 35 102 19 63 33
118 31 123 -1 5 -17 -41 -35 -101z"/>
<path d="M8550 2788 c0 -5 39 -32 133 -92 15 -10 27 -16 27 -14 0 5 -39 32
-132 92 -16 10 -28 16 -28 14z"/>
<path d="M5240 2585 l0 -175 95 0 c52 0 106 5 120 12 65 30 89 180 42 269 -31
59 -55 69 -164 69 l-93 0 0 -175z"/>
<path d="M7010 2683 c-36 -9 -67 -17 -69 -19 -2 -2 12 -21 32 -43 87 -97 97
-148 98 -522 0 -167 4 -326 10 -354 5 -27 12 -69 15 -92 l7 -43 -137 0 -137 0
-10 30 c-6 17 -13 30 -15 30 -2 0 -24 -16 -49 -35 -51 -39 -93 -49 -168 -43
-100 8 -188 74 -235 176 -24 50 -27 70 -27 157 0 135 20 190 94 266 47 48 67
60 125 78 46 14 95 21 151 21 48 0 87 5 90 10 4 6 4 34 0 62 -17 120 -135 136
-154 20 l-6 -37 -140 0 -140 0 1 62 c1 82 46 175 111 232 25 23 42 41 37 41
-5 0 -63 -18 -129 -39 l-120 -38 -3 -474 -2 -475 62 -28 c35 -16 124 -57 198
-92 123 -57 219 -101 576 -268 66 -31 123 -56 127 -56 3 0 8 57 9 128 l3 127
52 5 c64 7 79 21 103 93 l19 56 -60 223 c-33 123 -75 279 -94 348 -90 335
-135 503 -135 506 0 6 -19 3 -90 -13z"/>
<path d="M8725 2673 c6 -6 44 -33 85 -60 91 -60 100 -65 100 -60 0 3 -37 29
-82 59 -94 62 -118 76 -103 61z"/>
<path d="M4722 2650 c-5 -14 -51 -124 -102 -245 -51 -121 -93 -225 -93 -230 0
-12 41 -118 98 -250 24 -55 58 -136 75 -180 18 -44 35 -83 39 -87 3 -3 37 58
75 137 48 99 76 145 89 149 27 7 19 49 -27 157 -20 45 -36 90 -36 100 0 9 16
54 35 99 40 94 46 150 15 150 -10 0 -24 9 -30 20 -6 12 -38 62 -70 113 -55 86
-59 90 -68 67z"/>
<path d="M961 2573 c-7 -32 -30 -132 -52 -222 -21 -90 -39 -167 -39 -172 0 -5
50 -9 111 -9 l111 0 -7 28 c-4 15 -28 116 -54 224 -26 109 -49 200 -52 203 -3
3 -11 -21 -18 -52z"/>
<path d="M671 2464 c0 -11 3 -14 6 -6 3 7 2 16 -1 19 -3 4 -6 -2 -5 -13z"/>
<path d="M646 2384 c-4 -14 -5 -28 -3 -31 3 -2 8 8 11 23 4 14 5 28 3 31 -3 2
-8 -8 -11 -23z"/>
<path d="M616 2279 c-10 -33 -16 -63 -13 -65 2 -3 12 23 21 57 10 33 16 63 13
65 -2 3 -12 -23 -21 -57z"/>
<path d="M591 2184 c0 -11 3 -14 6 -6 3 7 2 16 -1 19 -3 4 -6 -2 -5 -13z"/>
<path d="M2911 2134 c-5 -22 -30 -136 -56 -254 -25 -118 -50 -227 -55 -242 -5
-16 -6 -28 -2 -28 4 0 59 15 122 34 108 31 115 35 112 57 -7 59 -94 455 -102
463 -5 5 -13 -8 -19 -30z"/>
<path d="M571 2114 c0 -11 3 -14 6 -6 3 7 2 16 -1 19 -3 4 -6 -2 -5 -13z"/>
<path d="M6661 2064 c-53 -38 -68 -138 -26 -179 29 -30 59 -32 102 -5 45 27
54 51 51 128 l-3 67 -50 3 c-34 2 -57 -3 -74 -14z"/>
<path d="M531 1974 c0 -11 3 -14 6 -6 3 7 2 16 -1 19 -3 4 -6 -2 -5 -13z"/>
<path d="M496 1853 c-38 -131 -40 -139 -32 -132 9 8 68 220 63 225 -2 2 -16
-40 -31 -93z"/>
<path d="M792 1858 c-5 -18 -20 -77 -33 -131 l-23 -98 -146 1 c-80 1 -149 1
-154 0 -5 0 -3 -7 4 -15 24 -28 234 -20 500 20 129 20 243 34 253 31 9 -2 17
-2 17 0 0 2 -12 53 -26 114 l-26 110 -178 0 -179 0 -9 -32z"/>
<path d="M4317 1858 c-3 -7 -26 -62 -51 -121 -25 -59 -40 -104 -33 -100 12 7
126 91 140 103 4 3 -2 31 -14 61 -26 64 -34 75 -42 57z"/>
<path d="M451 1694 c0 -11 3 -14 6 -6 3 7 2 16 -1 19 -3 4 -6 -2 -5 -13z"/>
<path d="M2613 1613 c20 -2 54 -2 75 0 20 2 3 4 -38 4 -41 0 -58 -2 -37 -4z"/>
<path d="M5441 1251 c-28 -28 -42 -83 -48 -189 -4 -75 -9 -95 -24 -105 -20
-15 -16 -52 7 -61 11 -4 14 -34 14 -145 0 -146 1 -151 48 -151 15 0 17 16 14
154 l-3 155 36 7 c28 5 35 11 35 30 0 21 -5 24 -34 24 -40 0 -45 9 -39 75 9
117 13 135 33 135 19 0 26 -15 32 -70 2 -17 10 -26 26 -28 18 -3 22 1 22 26 0
16 -6 50 -14 76 -25 82 -65 107 -105 67z"/>
<path d="M2190 1220 c0 -22 2 -40 4 -40 2 0 6 18 8 40 2 22 0 40 -4 40 -5 0
-8 -18 -8 -40z"/>
<path d="M830 918 c-34 -213 -43 -219 -58 -34 -6 74 -14 111 -23 117 -32 20
-34 14 -69 -198 -6 -40 -15 -73 -20 -73 -8 0 -11 27 -26 213 l-6 77 -35 0 -36
0 7 -82 c9 -105 42 -323 51 -337 3 -6 19 -11 34 -11 30 0 34 8 61 128 7 28 15
52 20 52 4 0 13 -36 20 -80 9 -59 17 -83 31 -90 28 -15 39 -12 49 15 12 31 93
426 88 430 -2 1 -17 6 -34 9 l-31 7 -23 -143z"/>
<path d="M1230 1051 c0 -9 -39 -253 -46 -284 -11 -54 -25 -12 -36 111 -9 103
-14 121 -29 125 -11 3 -21 2 -23 -2 -3 -4 -15 -66 -26 -137 -12 -71 -26 -133
-31 -139 -6 -6 -9 -6 -10 0 0 6 -6 73 -12 150 l-12 140 -34 3 -33 3 7 -88 c13
-157 41 -324 56 -334 8 -5 23 -9 35 -9 18 0 23 12 41 87 10 48 24 88 29 90 6
2 16 -33 24 -82 11 -70 16 -85 32 -86 10 -1 23 -2 30 -3 13 -1 23 40 68 261
38 191 38 190 0 195 -16 3 -30 2 -30 -1z"/>
<path d="M6344 1048 c-9 -14 -18 -567 -10 -621 7 -46 8 -47 43 -47 l35 0 -3
103 -4 102 39 5 c26 3 45 13 57 30 61 82 85 288 44 360 -27 45 -75 53 -111 19
-13 -12 -24 -18 -25 -13 -1 5 -2 20 -2 33 -2 18 -10 27 -29 32 -16 4 -31 3
-34 -3z m140 -130 c18 -70 -2 -204 -36 -235 -19 -17 -20 -17 -35 2 -20 28 -13
166 12 218 21 42 49 49 59 15z"/>
<path d="M6636 1045 c-3 -9 -6 -163 -6 -341 l0 -324 35 0 35 0 0 105 0 105 35
0 c73 0 118 99 119 262 1 93 -2 110 -20 135 -27 36 -74 43 -103 14 -28 -28
-31 -27 -31 14 0 24 -5 35 -14 35 -8 0 -21 3 -29 6 -8 3 -17 -2 -21 -11z m141
-132 c14 -49 6 -148 -15 -197 -22 -48 -30 -54 -50 -34 -20 20 -15 166 8 216
22 48 46 55 57 15z"/>
<path d="M1581 906 c-35 -215 -46 -221 -63 -32 -11 117 -13 126 -32 126 -19 0
-23 -12 -43 -137 -33 -196 -41 -195 -56 4 -6 77 -15 141 -21 145 -18 12 -56 9
-56 -4 0 -25 30 -274 41 -339 9 -61 13 -67 37 -72 36 -7 38 -5 52 55 23 104
31 128 39 128 5 0 15 -39 22 -87 13 -80 16 -88 38 -91 13 -2 27 0 31 5 10 9
75 310 85 391 l7 52 -29 0 -30 0 -22 -144z"/>
<path d="M1960 1027 c-27 -14 -66 -78 -72 -117 -2 -19 2 -26 17 -28 16 -2 24
6 33 32 25 69 72 53 72 -26 0 -38 -4 -50 -17 -54 -80 -25 -123 -70 -123 -131
0 -73 45 -113 106 -93 27 9 38 8 57 -5 19 -12 26 -13 29 -3 10 27 9 318 -2
357 -6 22 -22 49 -37 60 -30 24 -30 25 -63 8z m50 -306 c0 -50 -9 -61 -50 -61
-19 0 -40 27 -40 50 0 19 48 60 70 60 17 0 20 -6 20 -49z"/>
<path d="M5725 893 c-32 -174 -32 -173 -43 -173 -12 0 -18 33 -33 169 -8 76
-16 111 -25 111 -7 0 -20 3 -29 6 -15 6 -16 0 -10 -62 10 -100 30 -199 57
-284 l24 -75 -18 -85 c-23 -112 -23 -110 12 -110 23 0 31 5 34 23 5 23 7 34
52 291 14 82 34 183 44 225 l19 76 -22 17 c-12 10 -25 18 -28 18 -3 0 -18 -66
-34 -147z"/>
<path d="M6107 1020 c-23 -18 -57 -94 -57 -127 0 -7 11 -13 24 -13 18 0 27 8
35 30 21 62 71 43 71 -27 0 -27 -5 -35 -27 -43 -83 -30 -113 -68 -113 -141 0
-80 57 -123 121 -89 15 9 21 7 25 -5 3 -8 16 -15 29 -15 22 0 23 5 30 96 10
131 2 262 -19 302 -28 54 -74 67 -119 32z m71 -279 c6 -38 -6 -68 -30 -74 -50
-14 -66 47 -21 83 31 24 47 22 51 -9z"/>
<path d="M2182 1000 c0 -14 2 -19 5 -12 2 6 2 18 0 25 -3 6 -5 1 -5 -13z"/>
<path d="M1700 670 l0 -80 40 0 40 0 0 74 0 74 -31 6 c-17 3 -35 6 -40 6 -5 0
-9 -36 -9 -80z"/>
<path d="M5870 680 c0 -38 -1 -73 -2 -77 -2 -5 15 -9 38 -11 l41 -3 6 45 c9
64 -1 103 -27 110 -53 14 -56 11 -56 -64z"/>
<path d="M2182 640 c0 -14 2 -19 5 -12 2 6 2 18 0 25 -3 6 -5 1 -5 -13z"/>
</g>
</svg>
