<?xml version="1.0" standalone="no"?>
<!DOCTYPE svg PUBLIC "-//W3C//DTD SVG 20010904//EN"
 "http://www.w3.org/TR/2001/REC-SVG-20010904/DTD/svg10.dtd">
<svg version="1.0" xmlns="http://www.w3.org/2000/svg"
 width="1500.000000pt" height="400.000000pt" viewBox="0 0 1500.000000 400.000000"
 preserveAspectRatio="xMidYMid meet">

<g transform="translate(0.000000,400.000000) scale(0.100000,-0.100000)"
fill="#000000" stroke="none">
<path d="M1887 3553 c-4 -3 -7 -55 -7 -115 0 -59 -3 -108 -7 -108 -4 0 -180
29 -390 65 l-383 65 -217 -2 -216 -3 -119 -325 c-65 -179 -215 -589 -333 -911
-118 -323 -215 -600 -215 -618 l0 -31 237 0 c209 0 281 5 603 40 201 22 376
42 388 44 20 3 27 -4 42 -40 l19 -43 523 0 c461 0 537 2 643 19 118 18 120 18
134 -1 13 -18 27 -19 232 -19 205 0 232 2 422 35 111 19 212 38 224 40 18 4
24 0 29 -22 13 -53 14 -53 207 -53 172 0 188 2 368 40 215 46 229 47 229 22 0
-10 7 -28 16 -40 15 -21 20 -22 199 -22 l184 0 219 60 c121 33 222 60 225 60
3 0 7 -26 9 -57 l3 -58 231 -3 c228 -2 231 -2 288 23 63 28 70 30 61 15 -4 -6
-1 -17 5 -25 10 -12 53 -15 243 -15 l230 0 149 86 c82 47 152 83 156 80 3 -4
25 -42 48 -84 l41 -77 240 -3 240 -2 41 62 c22 35 75 122 117 193 83 138 110
175 132 175 7 0 13 5 13 11 0 5 5 7 10 4 6 -4 10 -86 10 -214 0 -165 3 -211
14 -220 9 -8 83 -11 247 -9 l234 3 5 305 5 305 132 3 c153 3 141 12 145 -113
l3 -70 43 -7 c36 -6 809 -388 848 -420 6 -4 117 -7 245 -6 l234 3 3 28 c2 17
8 27 15 24 259 -98 1638 -590 1677 -598 33 -7 96 -10 158 -6 93 4 111 9 176
41 144 70 211 174 316 489 52 152 54 157 81 157 16 0 278 -36 583 -80 l555
-80 821 410 c662 331 820 414 820 429 0 16 -158 99 -817 431 l-818 411 -780
-122 -780 -122 -275 2 c-262 2 -282 1 -420 -24 -156 -29 -151 -30 -272 14 -87
32 -233 45 -351 31 -53 -6 -230 -44 -392 -84 l-295 -73 -2 351 -3 351 -231 3
-230 2 -180 -141 c-98 -77 -185 -143 -191 -146 -7 -3 -29 9 -48 25 -78 69
-205 126 -329 148 -108 19 -915 21 -934 2 -9 -9 -12 -177 -12 -695 0 -376 -3
-683 -7 -683 -13 0 -134 243 -133 267 0 12 25 69 56 125 31 57 59 120 62 140
4 36 2 39 -31 53 -22 9 -55 40 -88 82 -29 37 -86 110 -127 161 l-74 92 -234 0
-234 0 -16 -25 c-9 -14 -20 -25 -25 -25 -4 0 -237 130 -516 288 -279 159 -526
295 -548 302 -60 21 -171 17 -225 -7 -88 -39 -141 -117 -141 -207 0 -91 44
-167 121 -206 19 -10 103 -40 185 -66 l150 -49 -210 -3 c-115 -1 -213 -6 -218
-11 -5 -5 -167 31 -375 84 -202 51 -709 180 -1127 286 -854 216 -860 217 -963
165 l-52 -27 -152 36 c-149 34 -154 35 -373 35 -122 0 -225 -3 -228 -7z m441
-985 l2 -968 -215 0 -215 0 0 963 c0 530 3 967 7 971 4 3 99 5 212 4 l206 -3
3 -967z m7210 0 l2 -968 -215 0 -215 0 0 963 c0 530 3 967 7 971 4 3 99 5 212
4 l206 -3 3 -967z m-6617 937 c141 -50 185 -227 82 -327 -51 -50 -99 -68 -180
-68 -160 0 -257 105 -231 249 16 93 110 161 224 161 34 0 81 -7 105 -15z
m2588 -11 c77 -39 106 -87 106 -179 0 -61 -4 -78 -27 -112 -39 -60 -112 -93
-202 -93 -83 0 -135 21 -183 71 -39 42 -53 77 -53 135 0 58 19 101 63 142 70
68 201 83 296 36z m-4072 -959 c183 -495 335 -908 338 -917 6 -17 -9 -18 -233
-18 l-240 0 -25 83 c-14 45 -37 121 -52 170 l-26 87 -302 0 -302 0 -51 -167
-51 -168 -237 -3 c-136 -1 -236 1 -236 7 0 7 611 1680 659 1804 l11 27 207 -2
208 -3 332 -900z m6957 876 c127 -34 218 -83 302 -164 62 -59 83 -87 119 -161
113 -235 75 -503 -93 -669 -150 -147 -321 -197 -679 -197 l-163 0 0 -310 0
-310 -220 0 -220 0 0 913 c0 503 3 917 8 921 4 5 201 6 437 3 399 -4 436 -6
509 -26z m5547 -613 c439 -222 795 -406 791 -410 -19 -18 -1605 -807 -1613
-802 -5 3 -9 332 -9 810 0 740 1 804 16 804 10 0 376 -181 815 -402z m-3376
167 c138 -38 257 -119 308 -212 52 -97 57 -138 57 -498 1 -352 9 -496 35 -566
9 -24 19 -54 22 -67 l5 -22 -218 2 -218 3 -15 50 c-8 28 -16 52 -18 54 -1 2
-20 -12 -42 -32 -131 -118 -326 -136 -508 -47 -178 88 -259 235 -233 424 27
187 165 316 385 361 44 9 147 19 229 22 l148 6 -4 72 c-6 86 -29 132 -78 157
-66 34 -175 14 -202 -36 -7 -11 -14 -37 -18 -56 l-5 -35 -214 -3 -214 -2 5 57
c17 185 195 338 445 383 71 13 279 4 348 -15z m-7527 -682 l2 -683 -215 0
-215 0 0 678 c0 373 3 682 7 686 4 3 99 5 212 4 l206 -3 3 -682z m570 675 c5
-7 38 -187 73 -400 35 -213 66 -382 70 -375 4 6 51 181 104 387 54 206 103
381 108 388 7 9 46 12 151 10 l141 -3 12 -37 c7 -20 54 -195 104 -388 51 -193
96 -347 100 -343 3 5 35 177 69 383 34 206 68 378 74 382 6 4 98 8 205 8 l193
0 -7 -37 c-12 -64 -307 -1317 -312 -1325 -2 -5 -85 -8 -183 -8 l-179 0 -10 38
c-127 464 -206 742 -211 742 -3 0 -18 -46 -33 -102 -16 -57 -65 -232 -109
-390 l-81 -288 -182 0 -181 0 -158 670 c-87 369 -155 677 -152 685 4 12 38 15
194 15 140 0 192 -3 200 -12z m1992 -673 l0 -685 -212 2 -213 3 -3 670 c-1
369 0 676 3 683 3 9 56 12 215 12 l210 0 0 -685z m616 677 c6 -4 50 -84 97
-179 48 -94 90 -174 95 -176 4 -3 48 71 97 165 49 94 95 177 103 184 10 11 58
14 222 14 115 0 211 -3 213 -7 3 -5 -72 -150 -165 -323 -94 -173 -173 -322
-175 -332 -3 -9 74 -163 176 -352 100 -184 181 -340 181 -346 0 -7 -70 -10
-221 -8 l-220 3 -102 193 c-56 105 -104 192 -107 192 -3 0 -50 -87 -105 -193
l-100 -192 -222 -3 c-123 -1 -223 0 -223 3 0 3 83 161 185 350 l185 344 -175
327 c-96 180 -172 331 -169 336 6 10 414 11 430 0z m5250 0 c7 -4 58 -172 115
-375 56 -202 106 -364 110 -360 3 5 53 168 109 363 57 195 107 361 113 368 7
9 65 12 228 12 120 0 220 -3 222 -7 3 -5 -24 -89 -58 -188 -35 -99 -161 -459
-279 -800 -119 -341 -231 -649 -248 -684 -48 -94 -107 -154 -194 -198 -70 -34
-82 -37 -182 -40 -70 -3 -124 1 -157 10 l-50 13 0 150 0 149 86 11 c47 7 95
17 107 23 28 15 54 54 81 121 l22 56 -236 683 c-129 375 -233 687 -229 692 6
11 424 12 440 1z"/>
<path d="M802 2607 c-51 -166 -93 -305 -92 -309 0 -5 86 -8 191 -8 178 0 191
1 184 18 -3 9 -46 147 -95 306 -49 159 -91 290 -93 292 -1 2 -44 -133 -95
-299z"/>
<path d="M7887 3084 c-4 -4 -7 -121 -7 -261 l0 -253 184 0 c239 0 277 13 332
114 25 44 28 61 27 126 -1 122 -45 209 -126 253 -38 20 -58 22 -222 25 -99 2
-183 0 -188 -4z"/>
<path d="M10321 2200 c-30 -5 -66 -17 -80 -27 -42 -31 -74 -98 -74 -157 -2
-91 45 -132 147 -130 68 1 108 18 155 65 l32 31 -3 112 -3 111 -60 1 c-33 1
-84 -2 -114 -6z"/>
<path d="M2577 1323 c-11 -50 -21 -760 -11 -766 5 -3 34 -7 64 -8 l55 -3 -3
145 c-2 79 1 257 7 394 5 138 9 251 8 251 -1 1 -27 5 -58 8 -56 7 -57 7 -62
-21z"/>
<path d="M4335 1340 c-10 -17 -19 -776 -9 -783 5 -3 34 -7 64 -8 l55 -3 -3
189 c-1 105 2 282 7 395 5 113 9 206 8 206 -1 1 -27 5 -59 8 -36 5 -58 3 -63
-4z"/>
<path d="M6837 1208 c-9 -197 -9 -646 1 -652 4 -2 31 -6 61 -7 l53 -3 -1 250
c0 137 3 314 8 394 5 80 8 146 7 146 0 1 -28 4 -62 8 l-61 7 -6 -143z"/>
<path d="M7448 1334 c-55 -30 -90 -121 -103 -276 -6 -60 -9 -67 -32 -73 -22
-5 -25 -10 -19 -37 3 -17 6 -36 6 -44 0 -7 10 -14 23 -16 21 -3 22 -7 27 -160
3 -86 10 -161 15 -167 6 -5 33 -11 60 -12 l50 -3 -4 182 -4 182 57 0 56 0 0
50 0 50 -56 0 -56 0 4 95 c4 102 18 135 43 102 7 -10 16 -37 19 -61 7 -42 9
-44 48 -50 22 -4 43 -4 46 -1 4 3 5 25 4 48 -10 153 -94 241 -184 191z"/>
<path d="M2827 1253 c-3 -4 -7 -31 -8 -58 l-3 -50 52 -9 c29 -5 55 -6 58 -3 3
2 8 30 11 61 l6 56 -41 0 c-22 0 -47 3 -55 6 -8 3 -17 2 -20 -3z"/>
<path d="M3637 1253 c-3 -4 -7 -31 -8 -58 l-3 -50 52 -9 c29 -5 55 -6 58 -3 3
2 8 30 11 61 l6 56 -34 0 c-19 0 -44 3 -55 6 -12 3 -24 2 -27 -3z"/>
<path d="M7086 1203 c-4 -31 -5 -57 -4 -58 2 -2 28 -6 59 -10 l56 -7 6 53 c4
29 3 56 -1 60 -4 3 -30 9 -58 12 l-51 6 -7 -56z"/>
<path d="M6550 1172 c0 -33 -3 -87 -6 -121 -6 -51 -10 -61 -26 -61 -37 0 -56
-17 -50 -47 7 -40 19 -51 47 -45 l25 4 0 -171 0 -171 44 0 c24 0 51 -3 60 -6
14 -5 16 14 16 175 l0 181 40 0 40 0 0 50 0 50 -37 0 -38 0 5 97 c4 54 4 101
0 104 -3 4 -31 9 -62 13 l-58 6 0 -58z"/>
<path d="M3886 1087 c-10 -42 -19 -522 -11 -649 l7 -128 60 0 60 0 -7 127 -8
126 45 -6 c59 -8 98 16 137 85 61 106 77 268 36 353 -27 54 -81 81 -129 65
-19 -6 -47 -21 -62 -33 l-27 -21 6 42 c8 45 11 43 -70 56 -26 4 -32 2 -37 -17z
m213 -175 c17 -54 8 -135 -22 -193 -27 -53 -49 -68 -71 -50 -22 19 -22 164 0
217 35 85 71 95 93 26z"/>
<path d="M8772 1092 c-4 -9 -7 -188 -7 -397 l0 -380 60 -3 60 -3 -4 126 -3
125 52 -2 c49 -2 54 0 90 38 65 70 109 235 90 334 -5 25 -9 48 -10 52 -1 19
-64 77 -89 83 -33 7 -77 -8 -108 -37 l-23 -21 0 42 c0 44 -2 46 -63 55 -30 4
-40 1 -45 -12z m209 -159 c17 -44 6 -171 -19 -219 -22 -43 -42 -57 -67 -48
-12 5 -15 26 -15 100 0 89 7 122 38 172 20 31 50 28 63 -5z"/>
<path d="M9212 1092 c-4 -9 -7 -188 -7 -397 l0 -380 60 -3 60 -3 -4 126 -3
125 51 -2 c44 -2 54 2 82 27 53 51 82 123 104 258 3 21 1 63 -5 93 -26 123
-126 168 -207 92 l-23 -21 0 42 c0 44 -2 46 -63 55 -30 4 -40 1 -45 -12z m208
-168 c17 -52 8 -160 -18 -211 -25 -49 -35 -57 -62 -48 -18 6 -20 15 -20 101 0
81 4 102 25 144 31 62 58 67 75 14z"/>
<path d="M615 1087 c-2 -7 -11 -50 -20 -97 -34 -172 -57 -263 -65 -249 -4 8
-13 61 -19 119 -20 176 -18 167 -53 174 -18 3 -35 3 -39 -1 -7 -7 -49 -187
-66 -281 -3 -18 -9 -35 -13 -37 -10 -6 -17 39 -30 200 -6 71 -12 130 -13 131
-1 1 -27 4 -57 5 l-55 4 3 -50 c7 -105 65 -432 79 -445 4 -4 29 -10 55 -12
l47 -5 20 66 c10 36 25 85 32 109 7 23 15 42 19 42 4 0 15 -42 25 -92 10 -51
22 -99 28 -105 5 -7 29 -13 53 -13 32 0 44 4 48 18 79 269 137 513 122 517
-36 11 -98 12 -101 2z"/>
<path d="M1165 1087 c-2 -7 -11 -50 -20 -97 -34 -175 -57 -263 -65 -249 -5 8
-13 61 -20 119 -19 175 -16 167 -52 174 -18 3 -35 3 -39 -1 -5 -5 -22 -75 -39
-158 -18 -82 -35 -154 -40 -158 -9 -10 -17 39 -31 203 -5 68 -11 125 -12 126
-11 7 -108 11 -112 4 -12 -19 64 -473 82 -490 12 -12 91 -16 101 -5 5 6 22 54
37 108 16 53 32 97 35 97 4 0 15 -42 25 -92 10 -51 22 -99 28 -105 5 -7 29
-13 53 -13 32 0 44 4 48 18 73 243 137 513 122 517 -36 11 -98 12 -101 2z"/>
<path d="M1726 1091 c-2 -3 -10 -35 -16 -71 -10 -55 -28 -138 -56 -259 -10
-44 -22 -7 -34 99 -19 174 -16 167 -52 174 -18 3 -35 3 -39 -1 -4 -5 -22 -73
-39 -153 -17 -80 -33 -152 -36 -160 -11 -29 -21 23 -34 175 -6 83 -13 151 -14
151 0 1 -26 4 -56 5 l-55 4 3 -50 c4 -69 61 -415 73 -436 10 -19 96 -31 108
-14 6 8 23 63 58 188 9 35 20 15 38 -75 10 -51 22 -99 28 -105 5 -7 29 -13 52
-13 l43 0 41 148 c61 216 99 376 92 383 -9 9 -101 18 -105 10z"/>
<path d="M3455 1090 c-4 -6 -75 -336 -75 -347 0 -2 -4 -3 -9 -3 -7 0 -20 78
-36 231 -6 56 -7 57 -42 64 -37 7 -53 -4 -53 -36 0 -13 -35 -180 -56 -269 -11
-47 -21 1 -34 155 -6 83 -15 153 -18 156 -4 4 -31 9 -59 13 -62 8 -59 18 -38
-134 25 -176 58 -344 69 -357 6 -6 31 -13 56 -15 50 -3 48 -7 90 141 12 40 25
70 29 65 5 -5 16 -49 26 -99 10 -49 23 -93 29 -97 6 -4 29 -8 52 -8 l41 0 51
188 c55 199 88 340 81 346 -9 8 -100 13 -104 6z"/>
<path d="M5190 1003 c-12 -49 -33 -132 -45 -186 -13 -55 -26 -101 -28 -103 -7
-7 -35 156 -43 244 -4 41 -12 75 -18 77 -6 2 -33 6 -60 10 l-48 7 7 -64 c12
-110 45 -250 81 -339 19 -48 34 -94 34 -103 0 -10 -11 -63 -25 -118 -14 -55
-25 -101 -23 -103 2 -1 28 -5 59 -9 l56 -6 17 88 c25 123 89 388 125 512 17
58 31 112 31 120 0 13 -72 60 -91 60 -4 0 -17 -39 -29 -87z"/>
<path d="M7891 1053 c-11 -41 -68 -273 -77 -312 -3 -14 -9 -20 -14 -15 -8 8
-37 193 -42 274 -3 35 -4 35 -58 42 -30 3 -57 4 -60 2 -2 -3 3 -55 12 -117 17
-114 54 -247 91 -326 l20 -44 -27 -114 c-16 -63 -27 -116 -25 -118 2 -1 28 -5
58 -6 l54 -4 42 190 c44 197 95 395 120 466 8 23 15 48 15 55 0 11 -76 64 -93
64 -3 0 -11 -17 -16 -37z"/>
<path d="M2218 1055 c-38 -26 -88 -112 -88 -152 0 -21 5 -23 44 -23 35 0 46 4
51 19 7 25 44 71 55 71 21 0 40 -34 40 -73 l0 -42 -52 -13 c-107 -25 -165 -92
-155 -179 9 -83 85 -128 169 -98 36 12 45 13 53 1 6 -8 29 -16 50 -17 l40 -4
8 110 c12 167 5 293 -21 346 -38 79 -122 103 -194 54z m102 -343 c0 -47 -14
-62 -57 -62 -22 0 -36 6 -43 20 -9 17 -6 25 19 50 17 18 40 30 55 30 23 0 26
-4 26 -38z"/>
<path d="M4649 1057 c-34 -22 -81 -98 -93 -148 -6 -26 -4 -27 40 -31 46 -3 46
-3 67 40 11 24 26 46 34 49 23 9 45 -21 50 -70 l5 -44 -43 -7 c-59 -9 -118
-44 -146 -85 -38 -56 -27 -149 21 -184 31 -21 86 -27 127 -13 36 13 44 13 53
1 6 -8 29 -15 51 -17 l40 -3 7 155 c12 234 0 301 -61 353 -42 35 -103 37 -152
4z m93 -352 c-2 -22 -7 -44 -12 -48 -13 -14 -72 -3 -84 16 -9 15 -5 23 22 48
21 18 42 29 55 27 19 -3 22 -8 19 -43z"/>
<path d="M6220 1069 c-43 -18 -89 -71 -111 -128 -26 -69 -36 -208 -20 -269 25
-90 107 -142 189 -120 34 9 132 95 132 115 0 5 -18 18 -39 30 l-40 23 -21 -30
c-32 -45 -58 -56 -80 -34 -16 17 -38 84 -27 84 11 0 184 31 201 36 17 6 18 14
13 85 -6 89 -35 161 -77 191 -32 23 -87 31 -120 17z m70 -125 c12 -31 13 -101
2 -108 -5 -3 -27 -8 -49 -12 l-41 -6 8 43 c15 77 31 109 56 109 8 0 19 -12 24
-26z"/>
<path d="M8460 1073 c-30 -11 -73 -59 -96 -108 -35 -73 -32 -85 16 -85 22 0
43 -1 47 -2 3 -2 11 11 16 27 29 90 80 84 88 -9 4 -39 4 -40 -41 -51 -96 -25
-153 -74 -165 -143 -7 -43 10 -97 38 -120 29 -24 86 -31 133 -17 35 10 46 11
52 1 4 -7 26 -16 49 -19 l41 -7 7 73 c4 40 5 138 3 217 -4 162 -14 196 -71
230 -30 19 -85 25 -117 13z m70 -368 c0 -39 -3 -45 -24 -51 -45 -11 -71 -1
-74 28 -3 22 3 32 30 48 54 33 68 27 68 -25z"/>
<path d="M2820 817 l0 -255 53 -4 c28 -3 55 -3 60 -1 11 6 9 491 -3 498 -5 3
-32 9 -60 12 l-50 6 0 -256z"/>
<path d="M3630 1063 c-2 -34 1 -497 3 -499 1 -1 26 -4 55 -5 l54 -4 0 250 0
250 -24 6 c-33 10 -88 10 -88 2z"/>
<path d="M5791 1024 c-23 -26 -41 -51 -41 -55 0 -22 -19 -6 -22 19 -3 24 -7
27 -47 30 l-43 3 3 -225 c3 -132 8 -229 14 -234 6 -5 34 -12 63 -14 l52 -5 -1
106 c-2 115 27 251 61 293 l17 22 14 -25 c11 -18 14 -64 12 -191 l-1 -166 56
-4 c31 -2 59 -3 61 -2 1 2 5 76 8 166 5 134 3 174 -11 220 -20 71 -60 108
-116 108 -33 0 -44 -6 -79 -46z"/>
<path d="M7080 820 c0 -192 3 -252 13 -255 6 -2 33 -5 60 -8 l47 -5 0 253 0
253 -31 6 c-17 3 -44 6 -60 6 l-29 0 0 -250z"/>
<path d="M1867 654 c-4 -49 -3 -92 1 -96 4 -3 33 -8 65 -9 42 -2 61 1 68 12
12 20 11 156 -2 164 -6 4 -36 9 -68 12 l-58 5 -6 -88z"/>
<path d="M5370 656 c0 -47 0 -89 0 -93 0 -5 29 -10 66 -13 62 -5 67 -4 75 18
11 30 11 133 0 151 -5 8 -35 15 -75 18 l-66 6 0 -87z"/>
<path d="M8058 653 c-3 -49 -2 -91 1 -95 3 -3 35 -8 71 -10 l65 -3 9 48 c4 26
5 67 2 91 -6 39 -10 44 -38 50 -17 3 -47 6 -68 6 l-38 0 -4 -87z"/>
</g>
</svg>
