<?xml version="1.0" standalone="no"?>
<!DOCTYPE svg PUBLIC "-//W3C//DTD SVG 20010904//EN"
 "http://www.w3.org/TR/2001/REC-SVG-20010904/DTD/svg10.dtd">
<svg version="1.0" xmlns="http://www.w3.org/2000/svg"
 width="981.000000pt" height="363.000000pt" viewBox="0 0 981.000000 363.000000"
 preserveAspectRatio="xMidYMid meet">

<g transform="translate(0.000000,363.000000) scale(0.100000,-0.100000)"
fill="#000000" stroke="none">
<path d="M1747 3323 c-4 -3 -7 -53 -7 -110 0 -85 -3 -103 -15 -103 -8 0 -107
27 -219 60 -200 59 -207 60 -324 60 -126 0 -133 -3 -131 -48 0 -12 3 -10 9 6
9 22 13 23 127 20 l117 -3 58 -270 c31 -148 73 -344 92 -435 19 -91 44 -208
56 -260 11 -52 39 -180 61 -285 22 -104 56 -261 75 -347 18 -86 34 -164 34
-173 0 -13 -20 -15 -134 -15 -120 0 -135 2 -139 18 -4 14 -5 13 -6 -4 -2 -38
17 -44 150 -44 70 0 140 5 155 10 19 8 30 8 38 0 19 -19 228 -12 308 10 89 24
85 24 91 0 5 -19 13 -20 124 -20 109 1 128 4 243 40 114 35 126 37 138 22 6
-9 12 -11 12 -4 0 6 -38 291 -85 633 -47 341 -85 632 -85 645 0 24 0 24 115
24 103 0 115 -2 115 -17 1 -40 69 -705 73 -709 5 -5 18 70 67 396 22 146 42
280 45 298 l6 32 84 0 c71 0 84 -3 89 -17 2 -10 28 -175 57 -367 30 -198 56
-340 60 -330 4 11 21 172 39 359 17 187 35 344 39 348 4 4 57 6 117 5 l109 -3
-2 -25 c-5 -49 -163 -1216 -171 -1255 l-8 -40 -101 -3 -101 -3 -6 28 c-3 15
-17 100 -31 188 -68 433 -85 528 -90 533 -3 3 -5 0 -5 -7 0 -18 -110 -703
-116 -724 -5 -16 -16 -18 -110 -15 -89 3 -104 1 -102 -12 3 -12 23 -16 98 -18
90 -3 101 0 204 38 60 22 115 40 122 40 8 0 17 -12 20 -27 12 -49 20 -53 119
-53 92 0 93 0 219 60 70 33 132 58 137 55 5 -4 9 232 9 597 0 332 3 613 6 626
6 21 10 22 125 22 l119 0 0 -665 0 -665 -119 0 c-86 0 -121 4 -125 13 -3 6 -4
1 -3 -13 2 -25 2 -25 120 -28 108 -2 122 -1 154 20 l36 22 15 -22 c14 -21 22
-22 136 -22 l121 0 85 85 c47 47 87 85 91 85 3 0 16 -34 29 -75 13 -42 29 -80
36 -86 7 -5 63 -8 135 -7 l124 3 68 190 c70 195 92 244 108 228 5 -5 10 -101
11 -213 l3 -205 135 0 135 0 3 295 c2 220 5 296 15 302 14 9 99 11 121 2 12
-5 16 -21 16 -73 0 -89 7 -109 39 -116 15 -3 126 -94 256 -210 l230 -204 125
2 c123 2 124 2 130 27 8 30 16 29 83 -14 112 -73 824 -514 854 -530 36 -18
118 -21 160 -5 64 24 121 100 157 213 19 58 96 411 96 440 0 14 62 1 353 -73
l309 -78 87 76 c48 42 145 126 217 188 413 356 610 528 617 539 4 7 4 18 1 26
-3 7 -125 117 -272 243 -146 127 -351 304 -456 395 -104 91 -197 164 -205 164
-9 -1 -209 -54 -446 -119 -236 -65 -439 -117 -450 -116 -209 15 -251 13 -353
-18 l-101 -32 -41 30 c-57 41 -137 57 -215 42 -33 -6 -129 -40 -213 -76 -84
-36 -159 -65 -167 -65 -13 0 -15 50 -17 338 l-3 337 -125 3 -126 3 -103 -141
c-57 -77 -107 -140 -111 -140 -4 0 -20 16 -34 35 -44 58 -78 86 -136 114 l-55
26 -255 0 -255 0 -5 -400 c-3 -220 -7 -401 -8 -403 -8 -13 -62 77 -114 190
-33 73 -68 141 -76 151 -13 14 -33 17 -123 17 -123 0 -137 -3 -150 -38 -5 -14
-13 -21 -17 -17 -96 98 -580 563 -596 572 -33 19 -94 16 -126 -7 -28 -20 -70
-93 -70 -121 0 -8 11 9 24 36 28 61 61 85 117 85 34 0 47 -6 74 -34 73 -78 73
-254 0 -332 -27 -29 -39 -34 -76 -34 -57 0 -85 21 -115 84 -26 56 -33 47 -9
-12 23 -53 50 -79 132 -124 40 -22 75 -44 79 -49 3 -5 -35 -9 -90 -9 -52 0
-105 -5 -118 -10 -19 -9 -44 -2 -148 43 -69 30 -353 154 -632 276 -552 240
-560 243 -617 195 l-31 -26 -90 36 c-86 34 -96 36 -208 36 -65 0 -122 -3 -125
-7z m243 -958 l0 -945 -120 0 -120 0 0 938 c0 516 3 942 7 945 3 4 57 7 120 7
l113 0 0 -945z m4065 0 l0 -940 -120 0 -120 0 -3 920 c-1 506 0 930 3 943 5
22 8 23 123 20 l117 -3 0 -940z m-3717 900 c47 -39 66 -89 65 -175 0 -86 -9
-114 -53 -164 -27 -31 -38 -36 -75 -36 -85 0 -135 73 -135 200 0 86 21 144 65
178 39 31 95 29 133 -3z m3091 -88 c140 -74 226 -235 251 -470 27 -249 -41
-489 -170 -600 -69 -59 -131 -77 -265 -77 l-115 0 0 -289 c0 -159 -3 -296 -6
-305 -5 -13 -26 -16 -130 -16 l-124 0 0 888 c0 489 3 892 7 896 4 4 118 6 253
4 l245 -3 54 -28z m2788 -309 c203 -177 546 -474 664 -576 62 -53 106 -98 103
-105 -3 -7 -69 -66 -147 -133 -78 -66 -278 -239 -445 -382 -166 -144 -307
-262 -312 -262 -7 0 -10 269 -10 785 0 442 4 785 9 785 5 0 67 -51 138 -112z
m-1570 -124 c59 -28 102 -73 138 -144 48 -95 53 -145 58 -605 4 -325 9 -446
20 -495 8 -36 13 -68 10 -72 -2 -5 -58 -8 -123 -8 l-118 0 -7 33 c-14 71 -14
71 -46 27 -42 -58 -83 -80 -150 -80 -110 0 -205 95 -245 245 -17 61 -18 235
-3 307 6 29 24 78 39 108 58 116 143 168 290 177 l90 6 0 56 c0 109 -36 181
-91 181 -45 0 -79 -48 -79 -111 l0 -30 -122 3 -123 3 3 50 c7 107 56 228 117
290 93 92 225 115 342 59z m-4257 -659 l0 -665 -120 0 -120 0 0 665 0 665 120
0 120 0 0 -665z m1820 593 c12 -40 33 -113 47 -163 15 -49 30 -94 34 -98 6 -8
26 49 89 261 l22 72 124 0 c85 0 124 -4 124 -11 0 -6 -43 -148 -95 -315 -52
-167 -95 -312 -95 -322 0 -9 45 -161 100 -337 55 -176 100 -326 100 -332 0
-10 -32 -13 -125 -13 l-124 0 -31 103 c-68 223 -83 267 -90 260 -3 -4 -31 -88
-60 -185 l-53 -178 -125 0 -124 0 4 28 c3 15 47 160 98 322 51 162 95 305 97
316 3 12 -38 161 -91 331 -53 170 -96 315 -96 321 0 9 37 12 125 12 l124 0 21
-72z m2944 45 c3 -16 22 -129 41 -253 54 -335 72 -427 78 -410 5 13 117 667
117 683 0 4 59 7 130 7 95 0 130 -3 130 -12 0 -7 -34 -179 -75 -383 -41 -203
-111 -550 -155 -770 -44 -219 -91 -436 -105 -482 -51 -167 -154 -245 -276
-210 l-44 13 -3 152 -3 152 24 0 c39 0 87 21 99 43 16 31 38 117 38 153 0 16
-58 324 -130 683 -71 359 -130 654 -130 657 0 2 58 4 129 4 l129 0 6 -27z
m-2294 -585 c0 -125 -4 -229 -9 -232 -10 -6 -74 198 -73 234 0 14 14 68 31
121 17 53 31 105 31 115 0 16 2 17 10 4 6 -9 10 -113 10 -242z"/>
<path d="M5130 2615 l0 -255 83 1 c137 1 174 24 202 129 19 72 19 144 -1 233
-14 58 -24 79 -54 110 l-38 37 -96 0 -96 0 0 -255z"/>
<path d="M6483 2000 c-33 -13 -53 -52 -66 -124 -12 -70 -1 -131 29 -161 22
-21 67 -19 98 6 46 36 56 69 56 184 l0 105 -47 -1 c-27 0 -58 -4 -70 -9z"/>
<path d="M1041 3144 c0 -11 3 -14 6 -6 3 7 2 16 -1 19 -3 4 -6 -2 -5 -13z"/>
<path d="M3573 3090 c0 -30 2 -43 4 -27 2 15 2 39 0 55 -2 15 -4 2 -4 -28z"/>
<path d="M1021 3049 c-7 -33 -10 -63 -8 -65 2 -3 10 23 16 57 7 33 10 63 8 65
-2 3 -10 -23 -16 -57z"/>
<path d="M997 2945 c-3 -16 -9 -48 -11 -70 -4 -32 -2 -29 9 15 8 30 13 62 12
70 -2 8 -6 2 -10 -15z"/>
<path d="M966 2794 c-4 -20 -5 -38 -3 -40 3 -3 8 11 11 32 4 20 5 38 3 40 -3
3 -8 -11 -11 -32z"/>
<path d="M951 2724 c0 -11 3 -14 6 -6 3 7 2 16 -1 19 -3 4 -6 -2 -5 -13z"/>
<path d="M941 2674 c0 -11 3 -14 6 -6 3 7 2 16 -1 19 -3 4 -6 -2 -5 -13z"/>
<path d="M1180 2669 c0 -2 -11 -67 -25 -144 -38 -205 -75 -419 -75 -427 0 -5
47 -8 105 -8 58 0 105 3 105 7 0 16 -102 568 -106 572 -2 2 -4 2 -4 0z"/>
<path d="M931 2624 c0 -11 3 -14 6 -6 3 7 2 16 -1 19 -3 4 -6 -2 -5 -13z"/>
<path d="M916 2559 c-4 -23 -5 -44 -2 -46 2 -2 7 14 11 37 4 23 5 43 2 46 -2
3 -7 -14 -11 -37z"/>
<path d="M891 2439 c-7 -33 -10 -63 -8 -65 2 -3 10 23 16 57 7 33 10 63 8 65
-2 3 -10 -23 -16 -57z"/>
<path d="M861 2299 c-7 -33 -10 -63 -8 -65 2 -3 10 23 16 57 7 33 10 63 8 65
-2 3 -10 -23 -16 -57z"/>
<path d="M841 2204 c0 -11 3 -14 6 -6 3 7 2 16 -1 19 -3 4 -6 -2 -5 -13z"/>
<path d="M831 2154 c0 -11 3 -14 6 -6 3 7 2 16 -1 19 -3 4 -6 -2 -5 -13z"/>
<path d="M822 2110 c0 -14 2 -19 5 -12 2 6 2 18 0 25 -3 6 -5 1 -5 -13z"/>
<path d="M811 2064 c0 -11 3 -14 6 -6 3 7 2 16 -1 19 -3 4 -6 -2 -5 -13z"/>
<path d="M790 1965 c-6 -31 -10 -59 -7 -61 2 -2 9 21 16 52 6 32 9 59 7 61 -2
3 -10 -21 -16 -52z"/>
<path d="M770 1877 c0 -4 -12 -61 -26 -128 -14 -66 -24 -122 -22 -125 3 -2 17
53 32 122 14 70 24 129 21 132 -3 3 -5 2 -5 -1z"/>
<path d="M1015 1738 c-5 -13 -55 -299 -55 -312 0 -4 -63 -6 -140 -4 -121 3
-140 1 -138 -12 3 -12 26 -16 126 -18 125 -3 129 -2 532 78 32 6 47 5 52 -3
13 -20 9 19 -15 153 l-23 125 -167 3 c-129 2 -168 0 -172 -10z"/>
<path d="M711 1594 c0 -11 3 -14 6 -6 3 7 2 16 -1 19 -3 4 -6 -2 -5 -13z"/>
<path d="M701 1544 c0 -11 3 -14 6 -6 3 7 2 16 -1 19 -3 4 -6 -2 -5 -13z"/>
<path d="M692 1500 c0 -14 2 -19 5 -12 2 6 2 18 0 25 -3 6 -5 1 -5 -13z"/>
<path d="M4876 1155 c-30 -32 -46 -99 -53 -225 -4 -68 -10 -98 -21 -107 -16
-14 -11 -85 8 -91 6 -2 10 -50 11 -120 0 -64 4 -137 7 -162 6 -41 9 -45 36
-45 l29 0 -2 172 -2 172 28 3 c26 3 28 7 31 51 3 47 3 48 -25 45 l-28 -3 -3
80 c-3 94 3 134 21 116 6 -6 14 -32 17 -59 4 -40 8 -47 29 -50 24 -4 24 -4 19
75 -7 89 -27 146 -57 163 -18 9 -25 7 -45 -15z"/>
<path d="M2129 883 c-2 -159 -2 -331 1 -383 5 -95 5 -95 33 -98 l27 -3 0 243
c0 134 3 307 7 386 l6 142 -35 0 -35 0 -4 -287z"/>
<path d="M3122 788 l3 -383 26 0 27 0 5 383 5 382 -34 0 -34 0 2 -382z"/>
<path d="M4535 1058 c-3 -62 -5 -234 -3 -383 l3 -270 33 -3 32 -3 2 365 c1
201 2 374 2 384 1 12 -8 18 -30 20 l-32 3 -7 -113z"/>
<path d="M2276 1082 c-3 -3 -6 -29 -6 -59 0 -52 0 -53 30 -53 27 0 30 3 32 35
1 19 2 43 2 52 1 16 -47 37 -58 25z"/>
<path d="M2727 1038 c-7 -58 -4 -65 33 -70 24 -3 25 0 28 55 2 45 0 57 -12 57
-8 0 -21 2 -29 6 -11 4 -16 -8 -20 -48z"/>
<path d="M4674 1034 c-7 -50 -1 -61 36 -66 24 -3 25 0 28 55 l3 57 -30 0 c-28
0 -30 -3 -37 -46z"/>
<path d="M4377 1054 c-4 -4 -7 -54 -7 -110 0 -97 -1 -104 -23 -119 -30 -19
-26 -80 5 -89 20 -5 21 -9 14 -148 -4 -79 -4 -151 -1 -160 5 -12 18 -18 36
-18 l29 0 2 168 c3 165 3 167 26 170 19 3 22 9 22 48 0 37 -3 44 -20 44 -23 0
-22 -6 -20 118 1 75 -2 92 -14 92 -8 0 -21 2 -28 5 -8 3 -17 2 -21 -1z"/>
<path d="M2865 756 c-7 -183 -4 -571 5 -579 3 -2 17 -7 33 -11 l27 -6 0 124 0
125 33 3 c26 2 36 10 50 39 51 105 64 358 21 416 -27 37 -50 40 -80 12 l-24
-22 0 35 c0 34 -14 47 -51 48 -4 0 -10 -83 -14 -184z m128 -7 c8 -48 -6 -188
-24 -220 -5 -11 -16 -18 -22 -16 -16 5 -15 222 1 260 17 39 35 29 45 -24z"/>
<path d="M5626 924 c-3 -9 -6 -181 -6 -384 l0 -368 30 -4 c17 -3 33 -2 36 1 3
3 2 58 -2 123 l-7 118 35 0 c32 0 38 4 56 43 30 65 46 152 46 262 0 80 -3 108
-19 140 -23 47 -55 57 -82 26 -25 -30 -36 -26 -29 9 5 26 2 32 -20 40 -32 13
-31 13 -38 -6z m118 -146 c18 -68 -2 -235 -30 -259 -24 -20 -34 6 -34 89 0
130 43 245 64 170z"/>
<path d="M5877 934 c-4 -4 -7 -178 -7 -386 l0 -378 25 0 c14 0 28 1 33 3 4 1
5 55 3 119 l-3 118 31 0 c40 0 64 38 86 135 34 148 15 334 -36 350 -20 7 -59
-10 -59 -25 0 -6 -4 -10 -10 -10 -5 0 -10 16 -10 35 0 19 -4 35 -9 35 -5 0
-16 2 -23 5 -8 3 -17 2 -21 -1z m116 -170 c20 -70 -14 -262 -45 -252 -20 7
-22 168 -3 235 17 59 34 65 48 17z"/>
<path d="M1026 918 c-2 -7 -11 -80 -21 -163 -9 -82 -19 -152 -21 -154 -10 -11
-14 13 -21 134 -7 121 -9 130 -29 133 -19 3 -22 -6 -39 -140 -9 -79 -21 -149
-25 -157 -4 -8 -11 57 -15 145 -5 99 -12 162 -19 166 -6 4 -21 8 -34 8 -21 0
-23 -3 -18 -42 3 -24 13 -128 22 -233 9 -104 21 -196 27 -202 5 -7 20 -13 32
-13 20 0 24 7 34 68 23 131 23 134 31 122 4 -7 11 -47 15 -89 7 -81 17 -101
45 -101 22 0 22 -1 60 250 17 113 32 210 34 215 5 14 13 -52 32 -260 9 -99 21
-186 27 -192 5 -7 19 -13 32 -13 20 0 23 9 40 101 20 113 29 113 40 -1 7 -80
16 -100 46 -100 11 0 19 1 19 3 0 1 5 29 10 62 29 175 70 449 66 452 -2 2 -16
5 -32 6 l-28 2 -19 -160 c-10 -88 -20 -161 -23 -164 -10 -10 -13 11 -21 134
-7 122 -9 130 -29 133 -19 3 -22 -3 -27 -45 -3 -26 -11 -92 -18 -145 -6 -54
-15 -98 -19 -98 -7 0 -20 155 -20 246 0 54 -8 64 -51 64 -10 0 -19 6 -19 14 0
7 -10 16 -22 20 -33 8 -38 8 -42 -6z"/>
<path d="M1650 913 c-1 -32 -39 -315 -43 -320 -6 -5 -14 63 -23 185 -5 81 -8
92 -25 92 -22 0 -24 -8 -39 -145 -6 -55 -14 -113 -17 -130 l-7 -30 -7 30 c-4
17 -7 71 -8 120 -1 50 -5 108 -9 130 -6 35 -11 40 -36 43 l-29 4 7 -99 c12
-164 37 -377 45 -386 5 -5 19 -7 32 -5 21 3 25 12 39 90 8 48 18 90 22 93 3 4
9 -20 13 -52 14 -114 19 -128 45 -128 29 0 30 6 76 318 24 162 26 190 13 198
-23 15 -49 10 -49 -8z"/>
<path d="M2626 919 c-2 -8 -12 -81 -21 -164 -9 -82 -19 -152 -21 -154 -10 -11
-14 13 -21 134 -8 124 -9 130 -30 133 -14 2 -23 -2 -23 -9 0 -30 -32 -265 -38
-279 -7 -17 -19 118 -21 226 -1 75 -7 84 -52 84 -18 0 -19 -5 -15 -47 3 -27
13 -131 22 -233 9 -102 21 -191 27 -197 5 -7 20 -13 32 -13 20 0 24 7 34 68
24 142 23 138 32 116 4 -11 10 -52 14 -90 8 -75 17 -94 46 -94 11 0 19 1 19 3
0 1 5 29 10 62 20 115 69 449 67 451 -1 1 -14 5 -29 9 -20 5 -29 3 -32 -6z"/>
<path d="M1935 896 c-24 -24 -55 -110 -55 -153 0 -18 6 -23 25 -23 20 0 25 6
31 35 3 19 12 39 20 46 11 9 16 6 24 -16 5 -14 10 -39 10 -55 0 -24 -7 -33
-41 -50 -29 -15 -46 -33 -60 -63 -40 -89 -13 -207 49 -207 15 0 33 5 40 12 9
9 13 7 18 -5 3 -9 17 -17 30 -17 l24 0 0 196 c0 215 -9 274 -48 304 -32 25
-38 25 -67 -4z m55 -335 c0 -45 -10 -61 -36 -61 -19 0 -24 5 -24 26 0 36 17
64 40 64 15 0 20 -7 20 -29z"/>
<path d="M3305 896 c-24 -24 -55 -110 -55 -153 0 -18 6 -23 25 -23 20 0 25 6
31 35 7 37 28 63 38 46 3 -5 9 -29 12 -54 6 -43 6 -44 -32 -64 -60 -30 -86
-83 -82 -165 3 -48 9 -72 22 -87 20 -22 70 -28 81 -10 5 6 11 4 19 -6 7 -10
21 -15 32 -13 18 3 19 14 19 218 0 186 -2 219 -18 247 -15 29 -44 53 -62 53
-3 0 -17 -11 -30 -24z m45 -346 c0 -47 -2 -50 -25 -50 -21 0 -25 5 -25 30 0
25 29 70 45 70 3 0 5 -22 5 -50z"/>
<path d="M3616 893 c-6 -30 -46 -296 -47 -316 0 -7 -4 -2 -9 11 -5 12 -12 77
-16 145 -4 67 -11 128 -17 135 -5 6 -21 12 -34 12 l-25 0 7 -82 c8 -105 32
-255 51 -334 14 -54 14 -72 0 -170 -8 -60 -14 -110 -13 -111 1 -1 14 -4 29 -8
20 -5 29 -3 32 6 2 8 16 106 30 219 15 113 36 264 48 336 21 125 21 133 5 158
-22 33 -34 33 -41 -1z"/>
<path d="M5130 909 c0 -19 -41 -303 -46 -318 -9 -26 -12 -6 -25 134 -6 77 -17
143 -23 147 -6 4 -20 8 -30 8 -18 0 -19 -6 -12 -97 7 -109 31 -264 51 -330 11
-36 10 -61 -3 -154 -13 -95 -14 -112 -1 -120 32 -20 48 -10 53 34 26 201 70
507 82 576 15 83 15 83 -7 107 -24 26 -39 31 -39 13z"/>
<path d="M5447 900 c-28 -22 -55 -85 -59 -140 -3 -31 0 -35 22 -35 17 0 26 6
29 20 2 11 7 31 12 44 15 39 39 8 39 -50 0 -38 -4 -49 -16 -49 -27 0 -81 -64
-94 -109 -13 -49 -6 -114 17 -150 13 -21 20 -23 59 -17 26 3 44 2 44 -4 0 -6
11 -10 24 -10 24 0 24 0 31 159 10 214 -8 326 -56 351 -23 13 -22 13 -52 -10z
m41 -352 c-3 -38 -6 -43 -28 -43 -31 0 -38 27 -16 60 27 41 48 32 44 -17z"/>
<path d="M2724 897 c-2 -7 -3 -118 -2 -247 l3 -235 33 -3 32 -3 -2 242 -3 243
-28 7 c-19 5 -30 4 -33 -4z"/>
<path d="M3965 894 c-8 -9 -22 -32 -31 -52 l-15 -37 -12 25 c-7 14 -20 26 -30
28 -16 3 -17 -13 -17 -211 0 -119 3 -222 6 -231 4 -9 18 -16 34 -16 l27 0 6
143 c5 146 22 250 41 244 7 -2 12 -66 14 -180 l2 -177 35 0 35 0 0 178 c0 186
-9 243 -43 280 -24 26 -31 27 -52 6z"/>
<path d="M4173 888 c-38 -40 -55 -105 -60 -233 -6 -130 3 -185 38 -229 39 -50
103 -20 130 61 10 31 9 38 -8 55 -20 19 -20 19 -41 -16 -24 -41 -40 -46 -47
-13 -14 65 -10 73 38 85 81 21 83 25 70 141 -7 63 -18 113 -30 134 -24 41 -60
47 -90 15z m51 -94 c3 -9 6 -38 6 -64 0 -39 -4 -52 -19 -60 -11 -5 -22 -10
-25 -10 -10 0 -7 72 5 113 11 39 23 47 33 21z"/>
<path d="M2272 658 l3 -243 28 -3 27 -3 0 245 0 246 -30 0 -30 0 2 -242z"/>
<path d="M4672 658 l3 -243 33 -3 32 -3 -2 243 -3 243 -33 3 -32 3 2 -243z"/>
<path d="M1734 576 c-3 -7 -4 -48 -2 -92 l3 -79 38 -3 38 -3 -3 87 -3 88 -33
7 c-23 5 -35 3 -38 -5z"/>
<path d="M3708 504 c-2 -47 0 -90 3 -96 3 -5 21 -8 40 -6 l34 3 3 83 c3 87 4
84 -50 96 l-27 6 -3 -86z"/>
<path d="M5224 577 c-3 -8 -4 -49 -2 -93 l3 -79 38 -3 37 -3 2 43 c3 62 -2
122 -10 129 -17 15 -63 19 -68 6z"/>
</g>
</svg>
